<svg xmlns="http://www.w3.org/2000/svg" data-bbox="14 28.5 172 143" viewBox="0 0 200 200" height="200" width="200" data-type="color">
    <g>
        <path d="M172.471 78.528h-1.867a.388.388 0 0 1 0-.776h1.867c.149 0 .297-.003.444-.008a.388.388 0 1 1 .028.776c-.157.006-.314.008-.472.008zm-3.416 0h-2.324a.388.388 0 0 1 0-.776h2.324a.388.388 0 0 1 0 .776zm-3.874 0h-2.324a.388.388 0 0 1 0-.776h2.324a.388.388 0 0 1 0 .776zm-3.874 0h-2.324a.388.388 0 0 1 0-.776h2.324a.388.388 0 0 1 0 .776zm-3.874 0h-2.171a.388.388 0 0 1 0-.776h2.171a.388.388 0 0 1 0 .776zm17.037-.151a.388.388 0 0 1-.057-.772 12.676 12.676 0 0 0 2.187-.537.389.389 0 0 1 .251.735c-.752.257-1.533.449-2.321.569a.317.317 0 0 1-.06.005zm3.688-1.141a.388.388 0 0 1-.168-.738 12.734 12.734 0 0 0 1.937-1.153.388.388 0 0 1 .453.63c-.647.467-1.338.879-2.054 1.223a.391.391 0 0 1-.168.038zm3.195-2.167a.388.388 0 0 1-.262-.674 12.912 12.912 0 0 0 1.522-1.666.387.387 0 1 1 .615.473 13.644 13.644 0 0 1-1.615 1.766.377.377 0 0 1-.26.101zm2.437-3.002a.388.388 0 0 1-.332-.587c.384-.649.713-1.334.975-2.036a.387.387 0 1 1 .726.273 13.664 13.664 0 0 1-1.034 2.159.388.388 0 0 1-.335.191zm1.463-3.582a.388.388 0 0 1-.377-.481c.178-.728.292-1.478.34-2.232a.39.39 0 0 1 .411-.363.388.388 0 0 1 .362.412 13.628 13.628 0 0 1-.361 2.367.386.386 0 0 1-.375.297zm.359-3.851a.388.388 0 0 1-.387-.368 12.92 12.92 0 0 0-.314-2.236.387.387 0 1 1 .754-.176c.18.775.292 1.573.334 2.371a.388.388 0 0 1-.367.408l-.02.001zm-.764-3.792a.386.386 0 0 1-.364-.256 12.886 12.886 0 0 0-.951-2.046.39.39 0 0 1 .141-.531.385.385 0 0 1 .529.141c.398.69.738 1.421 1.009 2.171a.39.39 0 0 1-.364.521zm-1.832-3.403a.387.387 0 0 1-.311-.156 12.895 12.895 0 0 0-1.502-1.683.39.39 0 0 1-.018-.549.385.385 0 0 1 .547-.018 13.694 13.694 0 0 1 1.593 1.785.39.39 0 0 1-.309.621zm-2.739-2.728a.389.389 0 0 1-.23-.076 12.803 12.803 0 0 0-1.923-1.176.388.388 0 1 1 .343-.696c.712.353 1.399.773 2.04 1.247a.39.39 0 0 1-.23.701zm-3.408-1.817a.384.384 0 0 1-.129-.022 12.724 12.724 0 0 0-2.181-.562.388.388 0 0 1-.319-.446.382.382 0 0 1 .445-.32c.785.129 1.564.33 2.314.596a.39.39 0 0 1-.13.754zm-3.787-.741h-.019a12.969 12.969 0 0 0-.593-.014h-1.713a.388.388 0 0 1 0-.776h1.713c.211 0 .42.005.629.014a.388.388 0 0 1-.017.776zm-3.874-.014h-2.324a.388.388 0 0 1 0-.776h2.324a.388.388 0 0 1 0 .776zm-3.874 0h-2.324a.388.388 0 0 1 0-.776h2.324a.388.388 0 0 1 0 .776zm-3.874 0h-2.324a.388.388 0 0 1 0-.776h2.324a.388.388 0 0 1 0 .776zm-3.874 0h-2.324a.388.388 0 0 1 0-.776h2.324a.388.388 0 0 1 0 .776z" fill="#D9332E" data-color="1"/>
        <path d="M98.861 166.615h-.775v-1.076a.387.387 0 1 1 .774 0v1.076zm-.388-2.238a.388.388 0 0 1-.387-.388v-2.328a.387.387 0 1 1 .774 0v2.328a.387.387 0 0 1-.387.388zm0-3.88a.388.388 0 0 1-.387-.388v-2.329a.387.387 0 1 1 .774 0v2.329a.386.386 0 0 1-.387.388zm0-3.881a.388.388 0 0 1-.387-.388v-2.329a.387.387 0 1 1 .774 0v2.329a.387.387 0 0 1-.387.388zm0-3.882a.388.388 0 0 1-.387-.388v-2.329a.387.387 0 1 1 .774 0v2.329a.387.387 0 0 1-.387.388zm-.001-3.882a.388.388 0 0 1-.387-.387 36.357 36.357 0 0 0-.084-2.301.388.388 0 1 1 .773-.055c.053.758.082 1.55.087 2.352a.388.388 0 0 1-.386.39l-.003.001zm-.232-3.871a.388.388 0 0 1-.384-.342 26.143 26.143 0 0 0-.371-2.261.388.388 0 0 1 .759-.162c.157.743.286 1.526.382 2.329a.388.388 0 0 1-.386.436zm-.749-3.801a.388.388 0 0 1-.372-.281 19.101 19.101 0 0 0-.751-2.149.388.388 0 1 1 .714-.303c.297.705.56 1.457.783 2.238a.39.39 0 0 1-.374.495zm-1.432-3.591a.387.387 0 0 1-.342-.205 14.58 14.58 0 0 0-1.217-1.906.389.389 0 0 1 .618-.469c.47.622.902 1.298 1.282 2.008a.389.389 0 0 1-.341.572zm-2.25-3.139a.386.386 0 0 1-.281-.121 13.529 13.529 0 0 0-1.683-1.503.39.39 0 0 1-.077-.544.387.387 0 0 1 .543-.077 14.477 14.477 0 0 1 1.78 1.589.39.39 0 0 1-.282.656zm-3.017-2.41a.385.385 0 0 1-.198-.055 15.967 15.967 0 0 0-2.025-1.02.389.389 0 0 1 .299-.717c.747.313 1.461.673 2.123 1.07a.389.389 0 0 1-.199.722zm-3.526-1.583a.386.386 0 0 1-.12-.019 21.937 21.937 0 0 0-2.206-.588.388.388 0 0 1 .162-.76c.796.17 1.565.375 2.284.609a.388.388 0 0 1-.12.758zm-3.769-.877a.403.403 0 0 1-.059-.005c-.723-.111-1.491-.2-2.283-.265a.389.389 0 0 1 .063-.775c.81.067 1.597.158 2.337.272a.388.388 0 0 1-.058.773zm-3.858-.365h-.018a57.525 57.525 0 0 0-2.311-.053.388.388 0 0 1 .001-.777h.002c.756.003 1.54.018 2.342.054a.388.388 0 0 1-.016.776zm-39.918-.015c-.39 0-.779-.009-1.166-.027a.388.388 0 0 1 .036-.776c.382.017.769.021 1.154.026h1.152a.388.388 0 0 1 0 .776h-1.152l-.024.001zm32.168 0h-2.324a.388.388 0 0 1 0-.776h2.324a.388.388 0 0 1 0 .776zm-3.874 0H65.69a.388.388 0 0 1 0-.776h2.324a.388.388 0 0 1 .001.776zm-3.874 0h-2.324a.388.388 0 0 1 0-.776h2.324a.388.388 0 0 1 0 .776zm-3.874 0h-2.324a.388.388 0 0 1 0-.776h2.324a.388.388 0 0 1 0 .776zm-3.874 0h-2.324a.388.388 0 0 1 0-.776h2.324a.388.388 0 0 1 0 .776zm-3.874 0h-2.324a.388.388 0 0 1 0-.776h2.324a.388.388 0 0 1 0 .776zm-3.874 0H46.32a.388.388 0 0 1 0-.776h2.324a.388.388 0 0 1 .001.776zm-3.874 0h-2.324a.388.388 0 0 1 0-.776h2.324a.388.388 0 0 1 0 .776zm28.668-.002a.387.387 0 0 1-.387-.385.387.387 0 0 1 .384-.391c.395-.003.811-.009 1.244-.016l1.08-.015a.389.389 0 0 1 .009.777l-1.077.014c-.434.006-.852.013-1.249.016h-.004zm-36.41-.142l-.042-.002a25.708 25.708 0 0 1-2.331-.358.388.388 0 0 1 .152-.762c.743.149 1.504.266 2.261.347a.388.388 0 0 1 .344.427.386.386 0 0 1-.384.348zm-3.805-.705a.374.374 0 0 1-.099-.013 25.624 25.624 0 0 1-2.25-.711.388.388 0 0 1 .267-.729c.714.263 1.448.495 2.181.689a.388.388 0 0 1-.099.764zm-3.65-1.278a.39.39 0 0 1-.155-.033 25.475 25.475 0 0 1-2.114-1.048.389.389 0 0 1 .376-.68c.664.368 1.353.71 2.05 1.016a.389.389 0 0 1-.157.745zm-3.413-1.824a.383.383 0 0 1-.207-.061 25.664 25.664 0 0 1-1.931-1.358.39.39 0 0 1-.07-.545.385.385 0 0 1 .543-.07c.601.465 1.231.908 1.872 1.317a.388.388 0 0 1-.207.717zm-3.098-2.324a.38.38 0 0 1-.255-.096 26.021 26.021 0 0 1-1.703-1.636.388.388 0 0 1 .561-.536 25.256 25.256 0 0 0 1.653 1.587.39.39 0 0 1-.256.681zm-2.712-2.768a.389.389 0 0 1-.297-.138 26.004 26.004 0 0 1-1.436-1.875.387.387 0 1 1 .635-.445c.433.622.902 1.235 1.393 1.819a.388.388 0 0 1-.295.639zm-2.262-3.148a.386.386 0 0 1-.331-.186 25.828 25.828 0 0 1-1.136-2.073.39.39 0 0 1 .177-.52.386.386 0 0 1 .518.178c.336.685.706 1.361 1.102 2.01a.388.388 0 0 1-.33.591zm-1.76-3.458a.39.39 0 0 1-.358-.239 25.59 25.59 0 0 1-.806-2.223.387.387 0 1 1 .739-.231c.227.729.49 1.454.782 2.155a.39.39 0 0 1-.357.538zm-1.21-3.685a.388.388 0 0 1-.376-.295 25.7 25.7 0 0 1-.457-2.32.388.388 0 1 1 .767-.115c.113.754.262 1.511.443 2.25a.388.388 0 0 1-.377.48zm-.633-3.827a.388.388 0 0 1-.386-.354c-.067-.757-.1-1.53-.1-2.296 0-.215.173-.42.387-.42s.387.141.387.356v.064c0 .743.033 1.493.097 2.228a.388.388 0 0 1-.352.421l-.033.001zm-.048-3.879l-.025-.001a.387.387 0 0 1-.362-.412c.05-.787.135-1.578.255-2.35a.388.388 0 0 1 .765.119c-.116.75-.199 1.517-.247 2.28a.387.387 0 0 1-.386.364zm.535-3.841a.388.388 0 0 1-.378-.471 25.47 25.47 0 0 1 .61-2.285.388.388 0 1 1 .739.235c-.23.726-.429 1.471-.592 2.216a.39.39 0 0 1-.379.305zm1.115-3.715a.388.388 0 0 1-.362-.528c.282-.732.602-1.46.951-2.164a.386.386 0 0 1 .519-.175c.191.096.27.328.174.521a24.748 24.748 0 0 0-.922 2.098.384.384 0 0 1-.36.248zm1.667-3.498a.389.389 0 0 1-.335-.582c.392-.682.819-1.352 1.269-1.993a.388.388 0 1 1 .633.447 24.877 24.877 0 0 0-1.231 1.933.386.386 0 0 1-.336.195zm2.181-3.204a.388.388 0 0 1-.303-.631 25.99 25.99 0 0 1 1.556-1.777.387.387 0 1 1 .559.538 24.946 24.946 0 0 0-1.509 1.724.387.387 0 0 1-.303.146zm2.641-2.837a.388.388 0 0 1-.262-.674 25.845 25.845 0 0 1 1.806-1.521.387.387 0 1 1 .471.616 25.35 25.35 0 0 0-1.752 1.475.379.379 0 0 1-.263.104zm3.038-2.403a.389.389 0 0 1-.216-.711c.653-.44 1.331-.853 2.016-1.228a.387.387 0 1 1 .372.682 25.13 25.13 0 0 0-1.956 1.191.391.391 0 0 1-.216.066zm3.369-1.914a.388.388 0 0 1-.165-.74c.71-.334 1.443-.638 2.18-.905a.388.388 0 1 1 .263.73c-.714.259-1.425.554-2.114.878a.37.37 0 0 1-.164.037zm3.618-1.373a.388.388 0 0 1-.109-.761 25.509 25.509 0 0 1 2.292-.559.386.386 0 0 1 .454.307.388.388 0 0 1-.306.456c-.745.146-1.493.328-2.222.543a.453.453 0 0 1-.109.014zm3.785-.802a.389.389 0 0 1-.051-.774 26.02 26.02 0 0 1 2.349-.203.389.389 0 0 1 .031.776 25.562 25.562 0 0 0-2.329.201zm13.936-.22h-2.324a.388.388 0 0 1 0-.776h2.324a.388.388 0 0 1 0 .776zm-3.874 0h-2.324a.388.388 0 0 1 0-.776h2.324a.388.388 0 0 1 0 .776zm-3.874 0h-2.324a.388.388 0 0 1 0-.776h2.324a.388.388 0 0 1 0 .776z" fill="#D9332E" data-color="1"/>
        <path d="M29.875 39.691a.775.775 0 0 0-.983-.487l-2.409.818v-2.577a.776.776 0 1 0-1.55 0v2.577l-2.409-.818a.778.778 0 0 0-.498 1.472l2.428.824-1.492 2.03a.778.778 0 0 0 .623 1.237.773.773 0 0 0 .625-.316l1.497-2.037 1.497 2.037a.773.773 0 0 0 1.084.165.777.777 0 0 0 .164-1.086L26.96 41.5l2.428-.824a.777.777 0 0 0 .487-.985z" fill="#293150" data-color="2"/>
        <path d="M177.474 132.771a.851.851 0 0 1-.1-.006l-3.621-.466a.777.777 0 0 1 .197-1.54l3.621.466a.777.777 0 0 1-.097 1.546z" fill="#D9332E" data-color="1"/>
        <path d="M175.883 136.036a.777.777 0 0 1-.695-1.118l1.589-3.265a.77.77 0 0 1 1.036-.357.777.777 0 0 1 .356 1.039l-1.589 3.265a.774.774 0 0 1-.697.436z" fill="#D9332E" data-color="1"/>
        <path d="M177.472 132.771a.776.776 0 0 1-.759-.624l-.715-3.562a.778.778 0 0 1 .607-.915.777.777 0 0 1 .913.608l.715 3.562a.778.778 0 0 1-.761.931z" fill="#D9332E" data-color="1"/>
        <path d="M177.474 132.771a.775.775 0 0 1-.377-1.455l3.125-1.742a.777.777 0 0 1 .753 1.358l-3.125 1.742a.778.778 0 0 1-.376.097z" fill="#D9332E" data-color="1"/>
        <path d="M180.057 135.248a.768.768 0 0 1-.535-.215l-2.584-2.477a.779.779 0 0 1-.025-1.098.774.774 0 0 1 1.096-.025l2.584 2.477a.779.779 0 0 1-.536 1.338z" fill="#D9332E" data-color="1"/>
        <path fill="#293150" d="M163.86 147.09a1.373 1.373 0 0 1-1.072 1.618 1.373 1.373 0 0 1-1.615-1.077 1.373 1.373 0 0 1 1.073-1.617 1.373 1.373 0 0 1 1.615 1.077z" data-color="2"/>
        <path d="M147.308 91.424H56.256V35.742h91.052v55.682zM57.805 89.87h87.953V37.295H57.805V89.87z" fill="#D9332E" data-color="1"/>
        <path d="M110.937 58.295L86.505 78.913a1.168 1.168 0 0 0-.141 1.642 1.157 1.157 0 0 0 1.638.141l24.432-20.618a1.168 1.168 0 0 0 .141-1.642 1.16 1.16 0 0 0-1.638-.141z" fill="#293150" data-color="2"/>
        <path d="M92.887 68.026a1.16 1.16 0 0 0-1.637-.141L75.513 81.166a1.168 1.168 0 0 0-.141 1.642 1.157 1.157 0 0 0 1.638.141l15.737-13.281a1.167 1.167 0 0 0 .14-1.642z" fill="#293150" data-color="2"/>
        <path d="M164.977 107.613v-.336h-.335l-10.24-10.261V32.388a3.887 3.887 0 0 0-3.877-3.888H53.039a3.887 3.887 0 0 0-3.877 3.888v64.629l-10.643 10.665h.745v6.154a4.325 4.325 0 0 0 4.316 4.326h117.083a4.326 4.326 0 0 0 4.315-4.326v-6.154h.068l-.069-.069zM51.486 32.388c0-.858.696-1.557 1.553-1.557h97.486c.856 0 1.553.699 1.553 1.557v63.947H51.486V32.388zm-.681 66.277h101.954l6.672 6.686h-46.425l-.552 4.108H91.11l-.552-4.108H44.132l6.673-6.686zm111.847 15.171c0 1.1-.893 1.996-1.991 1.996H43.578a1.996 1.996 0 0 1-1.991-1.996v-6.154h46.938l.296 2.2a2.204 2.204 0 0 0 2.176 1.908h21.57c1.094 0 2.029-.82 2.176-1.908l.296-2.201h47.614v6.155z" fill="#293150" data-color="2"/>
        <path fill="#D9332E" d="M98.473 171.5l8.064-14.005H90.409l8.064 14.005z" data-color="1"/>
    </g>
</svg>